<svg width="360" height="800" viewBox="0 0 360 800" fill="none" xmlns="http://www.w3.org/2000/svg">
<rect width="360" height="800" fill="#060B14" fill-opacity="0.85"/>
<path d="M176.875 342.181C179.958 339.272 184.774 339.272 187.856 342.181L224.416 376.682C227.762 379.839 227.762 385.161 224.416 388.318L187.856 422.819C184.774 425.728 179.958 425.728 176.875 422.819L140.315 388.318C136.969 385.161 136.969 379.839 140.315 376.682L176.875 342.181Z" fill="#EAEAEA"/>
<path d="M169.726 342.181C172.808 339.272 177.625 339.272 180.707 342.181L217.267 376.682C220.613 379.839 220.613 385.161 217.267 388.318L180.707 422.819C177.625 425.728 172.808 425.728 169.726 422.819L133.166 388.318C129.82 385.161 129.82 379.839 133.166 376.682L169.726 342.181Z" fill="#3063C5"/>
<path d="M166.718 394H163.838V386.44H154.478V394H151.598V376.36H154.478V386.08L156.638 383.92H163.838V376.36H166.718V394ZM183.444 378.88H178.224V394H175.344V378.88H170.124V376.36H183.444V378.88ZM201.98 386.44C201.98 387.112 201.728 387.7 201.224 388.204C200.72 388.708 200.132 388.96 199.46 388.96H189.74V394H186.86V381.4L189.38 378.88H186.86V376.36H199.46C200.132 376.36 200.72 376.612 201.224 377.116C201.728 377.62 201.98 378.208 201.98 378.88V386.44ZM199.1 386.44V378.88H189.74V388.6L191.9 386.44H199.1Z" fill="white"/>
<path d="M106.448 453C106.288 453 106.152 452.952 106.04 452.856C105.928 452.744 105.872 452.6 105.872 452.424V436.8C105.872 436.624 105.928 436.48 106.04 436.368C106.152 436.256 106.288 436.2 106.448 436.2H108.632C108.808 436.2 108.944 436.256 109.04 436.368C109.152 436.48 109.208 436.624 109.208 436.8V442.992H116.288V436.8C116.288 436.624 116.344 436.48 116.456 436.368C116.568 436.256 116.704 436.2 116.864 436.2H119.024C119.2 436.2 119.344 436.256 119.456 436.368C119.568 436.48 119.624 436.624 119.624 436.8V452.424C119.624 452.584 119.568 452.72 119.456 452.832C119.344 452.944 119.2 453 119.024 453H116.864C116.704 453 116.568 452.944 116.456 452.832C116.344 452.72 116.288 452.584 116.288 452.424V445.992H109.208V452.424C109.208 452.584 109.152 452.72 109.04 452.832C108.944 452.944 108.808 453 108.632 453H106.448ZM126.716 453.24C125.884 453.24 125.132 453.08 124.46 452.76C123.788 452.424 123.252 451.984 122.852 451.44C122.468 450.88 122.276 450.256 122.276 449.568C122.276 448.448 122.724 447.56 123.62 446.904C124.532 446.232 125.732 445.784 127.22 445.56L130.508 445.08V444.576C130.508 443.904 130.34 443.384 130.004 443.016C129.668 442.648 129.092 442.464 128.276 442.464C127.7 442.464 127.228 442.584 126.86 442.824C126.508 443.048 126.244 443.352 126.068 443.736C125.94 443.944 125.756 444.048 125.516 444.048H123.62C123.444 444.048 123.308 444 123.212 443.904C123.132 443.808 123.092 443.68 123.092 443.52C123.108 443.264 123.212 442.952 123.404 442.584C123.596 442.216 123.9 441.864 124.316 441.528C124.732 441.176 125.268 440.88 125.924 440.64C126.58 440.4 127.372 440.28 128.3 440.28C129.308 440.28 130.156 440.408 130.844 440.664C131.548 440.904 132.108 441.232 132.524 441.648C132.94 442.064 133.244 442.552 133.436 443.112C133.628 443.672 133.724 444.264 133.724 444.888V452.424C133.724 452.584 133.668 452.72 133.556 452.832C133.444 452.944 133.308 453 133.148 453H131.204C131.028 453 130.884 452.944 130.772 452.832C130.676 452.72 130.628 452.584 130.628 452.424V451.488C130.42 451.792 130.14 452.08 129.788 452.352C129.436 452.608 129.004 452.824 128.492 453C127.996 453.16 127.404 453.24 126.716 453.24ZM127.532 450.96C128.092 450.96 128.596 450.84 129.044 450.6C129.508 450.36 129.868 449.992 130.124 449.496C130.396 448.984 130.532 448.344 130.532 447.576V447.072L128.132 447.456C127.188 447.6 126.484 447.832 126.02 448.152C125.556 448.472 125.324 448.864 125.324 449.328C125.324 449.68 125.428 449.984 125.636 450.24C125.86 450.48 126.14 450.664 126.476 450.792C126.812 450.904 127.164 450.96 127.532 450.96ZM137.403 453C137.243 453 137.107 452.944 136.995 452.832C136.883 452.72 136.827 452.584 136.827 452.424V436.536C136.827 436.376 136.883 436.24 136.995 436.128C137.107 436.016 137.243 435.96 137.403 435.96H139.395C139.555 435.96 139.691 436.016 139.803 436.128C139.915 436.24 139.971 436.376 139.971 436.536V452.424C139.971 452.584 139.915 452.72 139.803 452.832C139.691 452.944 139.555 453 139.395 453H137.403ZM145.074 453C144.914 453 144.778 452.944 144.666 452.832C144.554 452.72 144.498 452.584 144.498 452.424V443.064H142.554C142.394 443.064 142.258 443.008 142.146 442.896C142.034 442.784 141.978 442.648 141.978 442.488V441.096C141.978 440.936 142.034 440.8 142.146 440.688C142.258 440.576 142.394 440.52 142.554 440.52H144.498V439.536C144.498 438.576 144.674 437.784 145.026 437.16C145.378 436.52 145.898 436.04 146.586 435.72C147.274 435.4 148.146 435.24 149.202 435.24H150.834C151.01 435.24 151.146 435.296 151.242 435.408C151.354 435.52 151.41 435.656 151.41 435.816V437.208C151.41 437.368 151.354 437.504 151.242 437.616C151.146 437.728 151.01 437.784 150.834 437.784H149.298C148.658 437.784 148.218 437.944 147.978 438.264C147.738 438.584 147.618 439.048 147.618 439.656V440.52H150.594C150.77 440.52 150.906 440.576 151.002 440.688C151.114 440.8 151.17 440.936 151.17 441.096V442.488C151.17 442.648 151.114 442.784 151.002 442.896C150.906 443.008 150.77 443.064 150.594 443.064H147.618V452.424C147.618 452.584 147.562 452.72 147.45 452.832C147.338 452.944 147.202 453 147.042 453H145.074ZM158.732 453C157.772 453 156.964 452.832 156.308 452.496C155.652 452.16 155.164 451.664 154.844 451.008C154.524 450.336 154.364 449.504 154.364 448.512V443.064H152.468C152.308 443.064 152.172 443.008 152.06 442.896C151.948 442.784 151.892 442.648 151.892 442.488V441.096C151.892 440.936 151.948 440.8 152.06 440.688C152.172 440.576 152.308 440.52 152.468 440.52H154.364V436.536C154.364 436.376 154.412 436.24 154.508 436.128C154.62 436.016 154.764 435.96 154.94 435.96H156.884C157.044 435.96 157.18 436.016 157.292 436.128C157.404 436.24 157.46 436.376 157.46 436.536V440.52H160.46C160.62 440.52 160.756 440.576 160.868 440.688C160.98 440.8 161.036 440.936 161.036 441.096V442.488C161.036 442.648 160.98 442.784 160.868 442.896C160.756 443.008 160.62 443.064 160.46 443.064H157.46V448.272C157.46 448.928 157.572 449.44 157.796 449.808C158.036 450.176 158.444 450.36 159.02 450.36H160.676C160.836 450.36 160.972 450.416 161.084 450.528C161.196 450.64 161.252 450.776 161.252 450.936V452.424C161.252 452.584 161.196 452.72 161.084 452.832C160.972 452.944 160.836 453 160.676 453H158.732ZM163.957 453C163.797 453 163.661 452.944 163.549 452.832C163.437 452.72 163.381 452.584 163.381 452.424V441.096C163.381 440.936 163.437 440.8 163.549 440.688C163.661 440.576 163.797 440.52 163.957 440.52H165.949C166.125 440.52 166.261 440.576 166.357 440.688C166.469 440.8 166.525 440.936 166.525 441.096V452.424C166.525 452.584 166.469 452.72 166.357 452.832C166.261 452.944 166.125 453 165.949 453H163.957ZM163.861 438.456C163.685 438.456 163.541 438.408 163.429 438.312C163.333 438.2 163.285 438.056 163.285 437.88V436.152C163.285 435.992 163.333 435.856 163.429 435.744C163.541 435.632 163.685 435.576 163.861 435.576H166.045C166.221 435.576 166.365 435.632 166.477 435.744C166.589 435.856 166.645 435.992 166.645 436.152V437.88C166.645 438.056 166.589 438.2 166.477 438.312C166.365 438.408 166.221 438.456 166.045 438.456H163.861ZM170.777 453C170.617 453 170.481 452.944 170.369 452.832C170.257 452.72 170.201 452.584 170.201 452.424V441.096C170.201 440.936 170.257 440.8 170.369 440.688C170.481 440.576 170.617 440.52 170.777 440.52H172.649C172.809 440.52 172.945 440.576 173.057 440.688C173.169 440.8 173.225 440.936 173.225 441.096V441.912C173.561 441.464 174.009 441.088 174.569 440.784C175.145 440.464 175.825 440.296 176.609 440.28C178.433 440.248 179.705 440.96 180.425 442.416C180.793 441.776 181.321 441.264 182.009 440.88C182.713 440.48 183.489 440.28 184.337 440.28C185.169 440.28 185.921 440.472 186.593 440.856C187.281 441.24 187.817 441.824 188.201 442.608C188.601 443.376 188.801 444.352 188.801 445.536V452.424C188.801 452.584 188.745 452.72 188.633 452.832C188.521 452.944 188.385 453 188.225 453H186.257C186.097 453 185.961 452.944 185.849 452.832C185.737 452.72 185.681 452.584 185.681 452.424V445.728C185.681 445.008 185.577 444.44 185.369 444.024C185.161 443.592 184.881 443.288 184.529 443.112C184.177 442.936 183.785 442.848 183.353 442.848C183.001 442.848 182.649 442.936 182.297 443.112C181.945 443.288 181.657 443.592 181.433 444.024C181.209 444.44 181.097 445.008 181.097 445.728V452.424C181.097 452.584 181.041 452.72 180.929 452.832C180.817 452.944 180.681 453 180.521 453H178.553C178.377 453 178.233 452.944 178.121 452.832C178.025 452.72 177.977 452.584 177.977 452.424V445.728C177.977 445.008 177.865 444.44 177.641 444.024C177.417 443.592 177.129 443.288 176.777 443.112C176.425 442.936 176.049 442.848 175.649 442.848C175.281 442.848 174.921 442.944 174.569 443.136C174.217 443.312 173.929 443.608 173.705 444.024C173.481 444.44 173.369 445.008 173.369 445.728V452.424C173.369 452.584 173.313 452.72 173.201 452.832C173.089 452.944 172.953 453 172.793 453H170.777ZM197.233 453.24C195.457 453.24 194.049 452.728 193.009 451.704C191.969 450.68 191.409 449.224 191.329 447.336C191.313 447.176 191.305 446.976 191.305 446.736C191.305 446.48 191.313 446.28 191.329 446.136C191.393 444.936 191.665 443.896 192.145 443.016C192.641 442.136 193.321 441.464 194.185 441C195.049 440.52 196.065 440.28 197.233 440.28C198.529 440.28 199.617 440.552 200.497 441.096C201.377 441.624 202.041 442.368 202.489 443.328C202.937 444.272 203.161 445.368 203.161 446.616V447.12C203.161 447.28 203.105 447.416 202.993 447.528C202.881 447.64 202.737 447.696 202.561 447.696H194.593C194.593 447.696 194.593 447.72 194.593 447.768C194.593 447.816 194.593 447.856 194.593 447.888C194.609 448.448 194.713 448.968 194.905 449.448C195.113 449.912 195.409 450.288 195.793 450.576C196.193 450.864 196.665 451.008 197.209 451.008C197.657 451.008 198.033 450.944 198.337 450.816C198.641 450.672 198.889 450.512 199.081 450.336C199.273 450.16 199.409 450.016 199.489 449.904C199.633 449.712 199.745 449.6 199.825 449.568C199.921 449.52 200.057 449.496 200.233 449.496H202.297C202.457 449.496 202.585 449.544 202.681 449.64C202.793 449.736 202.841 449.856 202.825 450C202.809 450.256 202.673 450.568 202.417 450.936C202.177 451.304 201.825 451.664 201.361 452.016C200.897 452.368 200.313 452.664 199.609 452.904C198.921 453.128 198.129 453.24 197.233 453.24ZM194.593 445.68H199.897V445.608C199.897 444.984 199.793 444.44 199.585 443.976C199.377 443.512 199.073 443.144 198.673 442.872C198.273 442.6 197.793 442.464 197.233 442.464C196.673 442.464 196.193 442.6 195.793 442.872C195.393 443.144 195.089 443.512 194.881 443.976C194.689 444.44 194.593 444.984 194.593 445.608V445.68ZM206.573 453C206.413 453 206.277 452.944 206.165 452.832C206.053 452.72 205.997 452.584 205.997 452.424V436.8C205.997 436.624 206.053 436.48 206.165 436.368C206.277 436.256 206.413 436.2 206.573 436.2H213.005C214.253 436.2 215.341 436.4 216.269 436.8C217.197 437.184 217.917 437.776 218.429 438.576C218.941 439.36 219.197 440.344 219.197 441.528C219.197 442.728 218.941 443.72 218.429 444.504C217.917 445.272 217.197 445.848 216.269 446.232C215.341 446.616 214.253 446.808 213.005 446.808H209.429V452.424C209.429 452.584 209.373 452.72 209.261 452.832C209.165 452.944 209.029 453 208.853 453H206.573ZM209.381 444.144H212.885C213.813 444.144 214.525 443.928 215.021 443.496C215.517 443.048 215.765 442.392 215.765 441.528C215.765 440.728 215.533 440.088 215.069 439.608C214.605 439.112 213.877 438.864 212.885 438.864H209.381V444.144ZM222.269 453C222.109 453 221.973 452.944 221.861 452.832C221.749 452.72 221.693 452.584 221.693 452.424V441.096C221.693 440.936 221.749 440.8 221.861 440.688C221.973 440.576 222.109 440.52 222.269 440.52H224.261C224.437 440.52 224.573 440.576 224.669 440.688C224.781 440.8 224.837 440.936 224.837 441.096V452.424C224.837 452.584 224.781 452.72 224.669 452.832C224.573 452.944 224.437 453 224.261 453H222.269ZM222.173 438.456C221.997 438.456 221.853 438.408 221.741 438.312C221.645 438.2 221.597 438.056 221.597 437.88V436.152C221.597 435.992 221.645 435.856 221.741 435.744C221.853 435.632 221.997 435.576 222.173 435.576H224.357C224.533 435.576 224.677 435.632 224.789 435.744C224.901 435.856 224.957 435.992 224.957 436.152V437.88C224.957 438.056 224.901 438.2 224.789 438.312C224.677 438.408 224.533 438.456 224.357 438.456H222.173ZM233.492 453.24C232.34 453.24 231.324 453.024 230.444 452.592C229.58 452.16 228.9 451.536 228.404 450.72C227.924 449.888 227.66 448.888 227.612 447.72C227.596 447.48 227.588 447.168 227.588 446.784C227.588 446.384 227.596 446.056 227.612 445.8C227.66 444.632 227.924 443.64 228.404 442.824C228.9 441.992 229.58 441.36 230.444 440.928C231.324 440.496 232.34 440.28 233.492 440.28C234.516 440.28 235.388 440.424 236.108 440.712C236.828 441 237.42 441.36 237.884 441.792C238.348 442.224 238.692 442.68 238.916 443.16C239.156 443.624 239.284 444.048 239.3 444.432C239.316 444.608 239.26 444.752 239.132 444.864C239.02 444.96 238.884 445.008 238.724 445.008H236.612C236.452 445.008 236.324 444.968 236.228 444.888C236.148 444.808 236.068 444.688 235.988 444.528C235.748 443.888 235.428 443.44 235.028 443.184C234.644 442.912 234.148 442.776 233.54 442.776C232.74 442.776 232.1 443.032 231.62 443.544C231.156 444.04 230.908 444.832 230.876 445.92C230.844 446.528 230.844 447.088 230.876 447.6C230.908 448.704 231.156 449.504 231.62 450C232.1 450.496 232.74 450.744 233.54 450.744C234.164 450.744 234.668 450.616 235.052 450.36C235.436 450.088 235.748 449.632 235.988 448.992C236.068 448.832 236.148 448.712 236.228 448.632C236.324 448.552 236.452 448.512 236.612 448.512H238.724C238.884 448.512 239.02 448.568 239.132 448.68C239.26 448.776 239.316 448.912 239.3 449.088C239.284 449.376 239.204 449.704 239.06 450.072C238.932 450.424 238.716 450.792 238.412 451.176C238.124 451.544 237.756 451.888 237.308 452.208C236.86 452.512 236.316 452.76 235.676 452.952C235.052 453.144 234.324 453.24 233.492 453.24ZM242.403 453C242.243 453 242.107 452.944 241.995 452.832C241.883 452.72 241.827 452.584 241.827 452.424V436.536C241.827 436.376 241.883 436.24 241.995 436.128C242.107 436.016 242.243 435.96 242.403 435.96H244.347C244.523 435.96 244.659 436.016 244.755 436.128C244.867 436.24 244.923 436.376 244.923 436.536V444.744L248.955 440.928C249.099 440.8 249.227 440.704 249.339 440.64C249.451 440.56 249.619 440.52 249.843 440.52H252.075C252.235 440.52 252.363 440.568 252.459 440.664C252.555 440.76 252.603 440.888 252.603 441.048C252.603 441.112 252.587 441.184 252.555 441.264C252.523 441.344 252.459 441.416 252.363 441.48L247.419 446.112L252.963 452.064C253.123 452.224 253.203 452.36 253.203 452.472C253.203 452.632 253.147 452.76 253.035 452.856C252.939 452.952 252.819 453 252.675 453H250.395C250.155 453 249.979 452.968 249.867 452.904C249.771 452.824 249.651 452.72 249.507 452.592L244.923 447.768V452.424C244.923 452.584 244.867 452.72 244.755 452.832C244.659 452.944 244.523 453 244.347 453H242.403Z" fill="white"/>
</svg>
