<svg width="17" height="16" viewBox="0 0 17 16" fill="none" xmlns="http://www.w3.org/2000/svg">
<path d="M13.75 15.2499H3.25C3.05109 15.2499 2.86032 15.1709 2.71967 15.0303C2.57902 14.8896 2.5 14.6989 2.5 14.4999V7.74994H0.25L7.99525 0.70894C8.13333 0.583298 8.31331 0.513672 8.5 0.513672C8.68669 0.513672 8.86667 0.583298 9.00475 0.70894L16.75 7.74994H14.5V14.4999C14.5 14.6989 14.421 14.8896 14.2803 15.0303C14.1397 15.1709 13.9489 15.2499 13.75 15.2499ZM9.25 13.7499H13V6.36769L8.5 2.27719L4 6.36769V13.7499H7.75V9.24994H9.25V13.7499Z" fill="#858585"/>
</svg>
