<svg width="14" height="15" viewBox="0 0 14 15" fill="none" xmlns="http://www.w3.org/2000/svg">
<path d="M13.1667 15H1.16667C0.967759 15 0.776994 14.921 0.636342 14.7803C0.495689 14.6397 0.416672 14.4489 0.416672 14.25V0.75C0.416672 0.551088 0.495689 0.360322 0.636342 0.21967C0.776994 0.0790176 0.967759 0 1.16667 0H13.1667C13.3656 0 13.5563 0.0790176 13.697 0.21967C13.8377 0.360322 13.9167 0.551088 13.9167 0.75V14.25C13.9167 14.4489 13.8377 14.6397 13.697 14.7803C13.5563 14.921 13.3656 15 13.1667 15ZM12.4167 13.5V1.5H1.91667V13.5H12.4167ZM3.41667 3H6.41667V6H3.41667V3ZM3.41667 7.5H10.9167V9H3.41667V7.5ZM3.41667 10.5H10.9167V12H3.41667V10.5ZM7.91667 3.75H10.9167V5.25H7.91667V3.75Z" fill="#858585"/>
</svg>
